<svg xmlns="http://www.w3.org/2000/svg" width="21.333" height="24" viewBox="0 0 21.333 24">
  <path id="Path_5" data-name="Path 5" d="M423.733,298.067H416.8A1.927,1.927,0,0,0,415.072,297h-.811a1.927,1.927,0,0,0-1.728,1.067H405.6a1.6,1.6,0,0,0-1.6,1.6v.533h1.067l.944,18.421A2.507,2.507,0,0,0,408.517,321h12.3a2.507,2.507,0,0,0,2.507-2.379l.944-18.421h1.067v-.533A1.6,1.6,0,0,0,423.733,298.067Zm-12.933,19.1a.631.631,0,0,1-.629.629h-1.141a.63.63,0,0,1-.629-.629l-.533-14.208a.63.63,0,0,1,.629-.629h1.675a.631.631,0,0,1,.629.629Zm5.333,0a.63.63,0,0,1-.629.629h-1.675a.63.63,0,0,1-.629-.629V302.963a.63.63,0,0,1,.629-.629H415.5a.63.63,0,0,1,.629.629Zm4.8,0a.63.63,0,0,1-.629.629h-1.141a.631.631,0,0,1-.629-.629V302.963a.631.631,0,0,1,.629-.629h1.675a.63.63,0,0,1,.629.629Z" transform="translate(-404 -297)" fill="#d06969"/>
</svg>
